<?xml version="1.0" encoding="iso-8859-1"?><!DOCTYPE svg PUBLIC "-//W3C//DTD SVG 1.1//EN" "http://www.w3.org/Graphics/SVG/1.1/DTD/svg11.dtd"><svg width="156" height="104" viewBox="0 0 156 104" xmlns="http://www.w3.org/2000/svg" xmlns:xlink="http://www.w3.org/1999/xlink"><view id="coffee" viewBox="0 0 52 52"/><svg width="52" height="52" viewBox="-165.59 -165.59 861.09 861.09"><path d="M21.415 444.532c14.277 14.277 31.5 21.416 51.678 21.416h365.45c20.18 0 37.405-7.14 51.676-21.416 14.27-14.27 21.408-31.497 21.408-51.674H0c.004 20.177 7.142 37.404 21.415 51.674zM137.046 356.312H338.04c17.51 0 32.546-6.28 45.112-18.842 12.56-12.563 18.842-27.6 18.842-45.11v-9.135h18.268c30.266 0 56.11-10.704 77.52-32.12 21.408-21.413 32.12-47.25 32.12-77.513 0-30.267-10.712-56.108-32.12-77.52-21.41-21.41-47.254-32.12-77.52-32.12h-328.9c-4.946 0-9.228 1.812-12.846 5.424-3.616 3.617-5.424 7.902-5.424 12.85v210.13c0 17.512 6.28 32.55 18.843 45.112 12.563 12.565 27.6 18.844 45.11 18.844zm264.948-237.537h18.274c15.23 0 28.172 5.33 38.828 15.987 10.656 10.66 15.988 23.6 15.988 38.83 0 15.223-5.332 28.167-15.988 38.83-10.656 10.658-23.6 15.99-38.828 15.99h-18.274V118.774z"/></svg><view id="dribbble" viewBox="52 0 52 52"/><svg viewBox="-158.91 -158.91 826.35 826.35" width="52" height="52" x="52"><path d="M254.26 0C114.067 0 0 114.067 0 254.26s114.067 254.26 254.26 254.26 254.26-114.067 254.26-254.26S394.452 0 254.26 0zm168.097 117.246c30.257 36.963 48.532 84.033 49.01 135.298-7.184-1.526-78.917-16.082-151.222-6.992l-4.672-11.22a683.718 683.718 0 0 0-14.397-31.464c80.314-32.768 116.705-79.425 121.28-85.622zM254.26 37.408c55.174 0 105.613 20.69 143.943 54.73-3.877 5.56-36.55 49.484-113.78 78.438-35.597-65.377-75.04-119.09-81.046-127.13a216.764 216.764 0 0 1 50.883-6.038zm-92.328 20.627c5.72 7.85 44.527 61.626 80.505 125.604-101.577 26.982-191.044 26.6-200.77 26.474 14.08-67.41 59.497-123.41 120.265-152.08zM37.058 254.578l.095-6.643c9.503.222 114.767 1.557 223.177-30.893a708.736 708.736 0 0 1 17.64 36.868l-8.582 2.574C157.418 292.684 97.826 391.4 92.868 399.79 58.226 361.304 37.09 310.39 37.058 254.58zm217.17 217.17c-50.185 0-96.46-17.1-133.296-45.83 3.91-7.947 47.896-92.933 170.386-135.617l1.43-.476c30.51 79.202 43.065 145.627 46.34 164.697-26.03 11.093-54.73 17.26-84.86 17.227zm121.377-37.123c-2.225-13.222-13.825-76.786-42.175-154.844 68.046-10.9 127.83 6.96 135.266 9.313-9.725 60.387-44.336 112.606-93.09 145.532z" fill="#090509"/></svg><view id="google" viewBox="0 52 52 52"/><svg width="52" height="52" viewBox="-30.26 -30.26 157.35 157.34" y="52"><path d="M62.617 0H39.525C29.235 0 22.112 2.256 15.7 7.552c-5.04 4.35-8.05 10.672-8.05 16.912 0 9.614 7.33 19.83 20.913 19.83 1.306 0 2.752-.133 4.028-.252l-.187.457c-.546 1.307-1.063 2.54-1.063 4.467 0 3.75 1.81 6.063 3.558 8.298l.22.283-.39.027c-5.61.384-16.05 1.1-23.676 5.787-9.007 5.355-9.707 13.145-9.707 15.404 0 8.988 8.376 18.06 27.09 18.06 21.76 0 33.146-12.005 33.146-23.863.003-8.77-5.14-13.1-10.6-17.698l-4.604-3.582c-1.423-1.18-3.195-2.646-3.195-5.364 0-2.673 1.773-4.437 3.337-5.993l.163-.165c4.973-3.917 10.61-8.358 10.61-17.964 0-9.658-6.036-14.65-8.938-17.048h7.663a.488.488 0 0 0 .266-.077l6.602-4.15A.5.5 0 0 0 62.617 0zM34.614 91.535c-13.264 0-22.176-6.195-22.176-15.416 0-6.022 3.645-10.397 10.824-12.998 5.75-1.935 13.17-2.03 13.244-2.03 1.257 0 1.89 0 2.893.125C48.68 67.822 53.14 71.29 53.14 77.895c0 8.414-7.1 13.64-18.528 13.64zm-.125-50.78c-11.133 0-15.753-14.632-15.753-22.467 0-3.984.906-7.042 2.77-9.35 2.023-2.532 5.487-4.167 8.825-4.167 10.22 0 15.873 13.74 15.873 23.234 0 1.498 0 6.055-3.148 9.22-2.117 2.113-5.56 3.532-8.568 3.532zM94.982 45.223H82.814V33.098a.5.5 0 0 0-.5-.5H77.08a.5.5 0 0 0-.5.5v12.125H64.473a.5.5 0 0 0-.5.5v5.304a.5.5 0 0 0 .5.5H76.58V63.73a.5.5 0 0 0 .5.5h5.234a.5.5 0 0 0 .5-.5V51.525h12.168a.5.5 0 0 0 .5-.5v-5.302a.5.5 0 0 0-.5-.5z"/></svg><view id="quotes" viewBox="52 52 52 52"/><svg viewBox="-23.75 -23.75 123.5 123.5" width="52" height="52" x="52" y="52"><path d="M14.58 5C6.526 5 0 11.716 0 20c0 8.285 6.527 15 14.58 15C29.156 35 19.437 64 0 64v7C34.69 71 48.286 5 14.58 5zm42 0C48.526 5 42 11.716 42 20c0 8.285 6.527 15 14.58 15C71.156 35 61.437 64 42 64v7C76.69 71 90.286 5 56.58 5z" fill="#030104"/></svg><view id="twitter" viewBox="104 0 52 52"/><svg viewBox="-191.25 -191.25 994.5 994.5" width="52" height="52" x="104"><path d="M612 116.258a250.714 250.714 0 0 1-72.088 19.772c25.93-15.527 45.777-40.155 55.184-69.41-24.322 14.378-51.17 24.82-79.775 30.48-22.906-24.438-55.49-39.66-91.63-39.66-69.333 0-125.55 56.218-125.55 125.514 0 9.828 1.11 19.427 3.25 28.606-104.325-5.24-196.834-55.223-258.75-131.174-10.822 18.51-16.98 40.078-16.98 63.1 0 43.56 22.182 81.994 55.836 104.48A125.556 125.556 0 0 1 24.63 232.21v1.568c0 60.806 43.29 111.554 100.692 123.104-10.517 2.83-21.607 4.398-33.08 4.398-8.107 0-15.947-.803-23.634-2.333 15.985 49.907 62.336 86.2 117.253 87.194-42.946 33.655-97.098 53.656-155.915 53.656-10.134 0-20.116-.612-29.944-1.72 55.568 35.68 121.537 56.484 192.44 56.484 230.947 0 357.187-191.29 357.187-357.188l-.42-16.253C573.87 163.525 595.21 141.42 612 116.257z" fill="#010002"/></svg></svg>