<?xml version="1.0" encoding="iso-8859-1"?><!DOCTYPE svg PUBLIC "-//W3C//DTD SVG 1.1//EN" "http://www.w3.org/Graphics/SVG/1.1/DTD/svg11.dtd"><svg xmlns="http://www.w3.org/2000/svg" width="52" height="52" viewBox="-165.59 -165.59 861.09 861.09"><path d="M21.415 444.532c14.277 14.277 31.5 21.416 51.678 21.416h365.45c20.18 0 37.405-7.14 51.676-21.416 14.27-14.27 21.408-31.497 21.408-51.674H0c.004 20.177 7.142 37.404 21.415 51.674zM137.046 356.312H338.04c17.51 0 32.546-6.28 45.112-18.842 12.56-12.563 18.842-27.6 18.842-45.11v-9.135h18.268c30.266 0 56.11-10.704 77.52-32.12 21.408-21.413 32.12-47.25 32.12-77.513 0-30.267-10.712-56.108-32.12-77.52-21.41-21.41-47.254-32.12-77.52-32.12h-328.9c-4.946 0-9.228 1.812-12.846 5.424-3.616 3.617-5.424 7.902-5.424 12.85v210.13c0 17.512 6.28 32.55 18.843 45.112 12.563 12.565 27.6 18.844 45.11 18.844zm264.948-237.537h18.274c15.23 0 28.172 5.33 38.828 15.987 10.656 10.66 15.988 23.6 15.988 38.83 0 15.223-5.332 28.167-15.988 38.83-10.656 10.658-23.6 15.99-38.828 15.99h-18.274V118.774z"/></svg>