<?xml version="1.0" encoding="iso-8859-1"?><svg xmlns="http://www.w3.org/2000/svg" viewBox="-158.91 -158.91 826.35 826.35" width="52" height="52"><path d="M254.26 0C114.067 0 0 114.067 0 254.26s114.067 254.26 254.26 254.26 254.26-114.067 254.26-254.26S394.452 0 254.26 0zm168.097 117.246c30.257 36.963 48.532 84.033 49.01 135.298-7.184-1.526-78.917-16.082-151.222-6.992l-4.672-11.22a683.718 683.718 0 0 0-14.397-31.464c80.314-32.768 116.705-79.425 121.28-85.622zM254.26 37.408c55.174 0 105.613 20.69 143.943 54.73-3.877 5.56-36.55 49.484-113.78 78.438-35.597-65.377-75.04-119.09-81.046-127.13a216.764 216.764 0 0 1 50.883-6.038zm-92.328 20.627c5.72 7.85 44.527 61.626 80.505 125.604-101.577 26.982-191.044 26.6-200.77 26.474 14.08-67.41 59.497-123.41 120.265-152.08zM37.058 254.578l.095-6.643c9.503.222 114.767 1.557 223.177-30.893a708.736 708.736 0 0 1 17.64 36.868l-8.582 2.574C157.418 292.684 97.826 391.4 92.868 399.79 58.226 361.304 37.09 310.39 37.058 254.58zm217.17 217.17c-50.185 0-96.46-17.1-133.296-45.83 3.91-7.947 47.896-92.933 170.386-135.617l1.43-.476c30.51 79.202 43.065 145.627 46.34 164.697-26.03 11.093-54.73 17.26-84.86 17.227zm121.377-37.123c-2.225-13.222-13.825-76.786-42.175-154.844 68.046-10.9 127.83 6.96 135.266 9.313-9.725 60.387-44.336 112.606-93.09 145.532z" fill="#090509"/></svg>